<?xml version="1.0" encoding="UTF-8"?> <svg xmlns="http://www.w3.org/2000/svg" viewBox="0 0 57.08 19.07"><defs><style>.cls-1{fill:#4d4d4f;}.cls-2{fill:#00e556;}.cls-3{fill:#fff;}</style></defs><g id="Layer_2" data-name="Layer 2"><g id="Layer_1-2" data-name="Layer 1"><path class="cls-1" d="M30.77,7.14a2.43,2.43,0,0,1,.59,1.76v4h-.95V9A1.71,1.71,0,0,0,30,7.78a1.4,1.4,0,0,0-1.1-.43,3,3,0,0,0-1.58.4,2.63,2.63,0,0,1,.15.95V13h-.95V9a1.75,1.75,0,0,0-.38-1.21,1.38,1.38,0,0,0-1.09-.43,3.4,3.4,0,0,0-1.46.3V13h-.94V6.6a1.63,1.63,0,0,1,.89.25,5.34,5.34,0,0,1,1.83-.32A2,2,0,0,1,27,7.12a3.67,3.67,0,0,1,2.19-.59,2.13,2.13,0,0,1,1.63.61"></path><path class="cls-1" d="M36.64,11.94a2.06,2.06,0,0,0,.72-.87,3,3,0,0,0,.25-1.28,3,3,0,0,0-.25-1.27,2,2,0,0,0-.72-.86A1.93,1.93,0,0,0,34.12,8a2.69,2.69,0,0,0-.56,1.76,2.71,2.71,0,0,0,.56,1.78,1.81,1.81,0,0,0,1.47.68,1.88,1.88,0,0,0,1-.31M34,12.66a2.83,2.83,0,0,1-1.07-1.15,3.78,3.78,0,0,1-.37-1.72,3.67,3.67,0,0,1,.37-1.7A2.77,2.77,0,0,1,34,6.94a3,3,0,0,1,1.58-.41,3.07,3.07,0,0,1,1.58.41,2.74,2.74,0,0,1,1.06,1.15,3.67,3.67,0,0,1,.38,1.7,3.79,3.79,0,0,1-.38,1.72,2.8,2.8,0,0,1-1.06,1.15,3.07,3.07,0,0,1-1.58.41A3,3,0,0,1,34,12.66"></path><path class="cls-1" d="M44,11.58a2.41,2.41,0,0,0,.64-1.76,3.14,3.14,0,0,0-.26-1.3,2,2,0,0,0-.75-.86,2,2,0,0,0-1.11-.31,2.55,2.55,0,0,0-.89.17,2.88,2.88,0,0,0-.79.48V12a3.85,3.85,0,0,0,1.46.3,2.23,2.23,0,0,0,1.7-.67M44.23,7a2.67,2.67,0,0,1,1,1.16,3.93,3.93,0,0,1,.36,1.73,3.66,3.66,0,0,1-.38,1.69,2.68,2.68,0,0,1-1.08,1.13,3.16,3.16,0,0,1-1.61.41A4.88,4.88,0,0,1,41.6,13a4.22,4.22,0,0,1-.85-.23,1.48,1.48,0,0,1-.88.26V3.9l1-.29V7.17a2.64,2.64,0,0,1,.86-.47,3.41,3.41,0,0,1,1.06-.17A2.68,2.68,0,0,1,44.23,7"></path><path class="cls-1" d="M47.84,13h-1V6.65h1Zm-.92-7.79a.63.63,0,0,1-.17-.47.61.61,0,0,1,.17-.46A.54.54,0,0,1,47.35,4a.56.56,0,0,1,.44.19.62.62,0,0,1,.18.46.64.64,0,0,1-.18.47.6.6,0,0,1-.44.19.57.57,0,0,1-.43-.19"></path><polygon class="cls-1" points="50.42 3.62 50.42 12.95 49.48 12.95 49.48 3.9 50.42 3.62"></polygon><path class="cls-1" d="M53.19,7.91a2.83,2.83,0,0,0-.51,1.59h3.43a2.84,2.84,0,0,0-.51-1.6,1.52,1.52,0,0,0-2.41,0m3.87,2.26H52.69c.11,1.39.77,2.08,2,2.08a5.14,5.14,0,0,0,1-.11,6.71,6.71,0,0,0,1-.28v.78a4.74,4.74,0,0,1-1,.31,5.94,5.94,0,0,1-1.16.12,2.74,2.74,0,0,1-1.47-.4,2.53,2.53,0,0,1-1-1.13,4.11,4.11,0,0,1-.35-1.75A3.94,3.94,0,0,1,52,8.09a2.64,2.64,0,0,1,1-1.15,2.49,2.49,0,0,1,1.41-.41,2.45,2.45,0,0,1,1.4.4,2.6,2.6,0,0,1,.94,1.12,3.82,3.82,0,0,1,.34,1.66c0,.15,0,.3,0,.46"></path><path class="cls-2" d="M9.53,19.07A9.54,9.54,0,0,1,5.5.89L6.3.58s.37-.12.56-.2A9.57,9.57,0,0,1,8.15.1,9.15,9.15,0,0,1,9.53,0a9.54,9.54,0,1,1,0,19.07"></path><path class="cls-3" d="M13.37,7.28,8.23,4.85v1.5L12.8,8.5a1.71,1.71,0,0,1,0,3.09L8.22,13.66a.86.86,0,0,1-.9,0,.89.89,0,0,1-.46-.78V.38c-.19,0-.37.12-.56.18s-.53.21-.79.33v12a2.25,2.25,0,0,0,1.13,2,2.28,2.28,0,0,0,1.13.3,2.24,2.24,0,0,0,1.09-.28l4.48-2a3,3,0,0,0,0-5.54"></path></g></g></svg> 